<svg xmlns="http://www.w3.org/2000/svg" width="24" height="24" viewBox="0 0 24 24" fill="none" stroke="#D4AF37" stroke-width="2" stroke-linecap="round" stroke-linejoin="round">
  <path d="M16 2s1.5 2 2 3c.509 1.025.815 2.162.879 3.33a5.6 5.6 0 0 1-1.065 3.569 5.6 5.6 0 0 1-2.715 1.98c-.705.181-1.437.278-2.173.29a8.56 8.56 0 0 1-2.154-.289 5.6 5.6 0 0 1-2.715-1.98 5.6 5.6 0 0 1-1.065-3.57c.064-1.167.37-2.304.879-3.329.5-1 2-3 2-3"></path>
  <path d="M12 12l-3-2-1.5 3.67a1 1 0 0 0 .82 1.33l1.68.3c.67.1 1.3-.3 1.47-.96l.53-1.34"></path>
  <path d="M12 12l3-2 1.5 3.67a1 1 0 0 1-.82 1.33l-1.68.3c-.67.1-1.3-.3-1.47-.96L12 12z"></path>
</svg>